<svg width="100" height="101" viewBox="0 0 100 101" fill="none" xmlns="http://www.w3.org/2000/svg">
<mask id="mask0_111_3123" style="mask-type:alpha" maskUnits="userSpaceOnUse" x="0" y="0" width="100" height="101">
<path d="M49.9997 100.599V50.5986H99.9998V100.599H49.9997Z" fill="#F8F8F8"/>
<path d="M0 50.5986L0 0.598632H50.0001V50.5986H0Z" fill="#F8F8F8"/>
<path d="M0 100.599L0 50.5986H50.0001V100.599H0Z" fill="#F8F8F8"/>
</mask>
<g mask="url(#mask0_111_3123)">
<path d="M50.0001 0.598631C77.6144 0.598631 100 22.9844 100 50.5986C100 78.2129 77.6144 100.599 50.0001 100.599C22.3858 100.599 0 78.2129 0 50.5986C0 22.9844 22.3858 0.598631 50.0001 0.598631Z" fill="#4EBB6D"/>
<path d="M50.0001 25.5988C77.6144 25.5988 100 36.7916 100 50.5988C100 64.4059 77.6144 75.5988 50.0001 75.5988C22.3858 75.5988 0 64.4059 0 50.5988C0 36.7916 22.3858 25.5988 50.0001 25.5988Z" fill="#D5BF82"/>
<path d="M49.9997 50.5986V100.599H-0.000425339V50.5986H49.9997Z" fill="#4EBB6D"/>
</g>
</svg>
