<svg width="80" height="42" viewBox="0 0 80 42" fill="none" xmlns="http://www.w3.org/2000/svg">
<path d="M79.9998 36.839V42H44.9122V38.3221L56.968 23.3136H48.511V18.3899H60.9266L71.123 5.63563H45.1521V0.474609H79.1001V4.09325L67.5842 18.5085H75.3815V23.4322H63.6256L52.9494 36.839H79.9998Z" fill="black"/>
<path d="M17.9936 0C23.5917 0 28.0101 1.62147 31.249 4.8644C34.4878 8.06779 36.1072 12.6751 36.1072 18.6864V42H30.1094V30.5508H5.87792V42H0V18.6864C0 12.6751 1.61943 8.06779 4.85828 4.8644C8.09714 1.62147 12.4756 0 17.9936 0ZM30.1094 25.3898V18.1525C30.1094 13.9209 29.0297 10.7175 26.8705 8.54237C24.7513 6.36723 21.7923 5.27966 17.9936 5.27966C14.195 5.27966 11.216 6.36723 9.0568 8.54237C6.93755 10.7175 5.87792 13.9209 5.87792 18.1525V25.3898H30.1094Z" fill="black"/>
</svg>
