<svg width="100" height="75" viewBox="0 0 100 75" fill="none" xmlns="http://www.w3.org/2000/svg">
<path d="M91.31 56.5347V63.1932H46.1874V58.4481L61.6911 39.0851H50.8154V32.7328H66.7818L79.8944 16.2782H46.4959V9.61975H90.153V14.2883L75.3436 32.8859H85.3708V39.2382H70.2528L56.5232 56.5347H91.31Z" fill="#4EBB6D"/>
<path d="M23.1398 9.00745C30.3388 9.00745 36.021 11.0994 40.1861 15.2832C44.3513 19.416 46.4339 25.3601 46.4339 33.1155V63.1931H38.7206V48.4222H7.559V63.1931H0V33.1155C0 25.3601 2.08258 19.416 6.24775 15.2832C10.4129 11.0994 16.0436 9.00745 23.1398 9.00745ZM38.7206 41.7638V32.4267C38.7206 26.9673 37.3322 22.8345 34.5554 20.0283C31.8301 17.222 28.0249 15.8189 23.1398 15.8189C18.2547 15.8189 14.4238 17.222 11.647 20.0283C8.92168 22.8345 7.559 26.9673 7.559 32.4267V41.7638H38.7206Z" fill="#4EBB6D"/>
<mask id="mask0_112_3132" style="mask-type:alpha" maskUnits="userSpaceOnUse" x="89" y="0" width="11" height="11">
<path d="M94.7518 10.4149V5.20746H100V10.4149H94.7518Z" fill="#F8F8F8"/>
<path d="M89.5035 5.2074V-5.65305e-05H94.7518V5.2074H89.5035Z" fill="#F8F8F8"/>
<path d="M89.5035 10.4149V5.20746H94.7518V10.4149H89.5035Z" fill="#F8F8F8"/>
</mask>
<g mask="url(#mask0_112_3132)">
<path d="M94.7518 9.00929e-06C97.6503 9.00929e-06 100 2.33147 100 5.20746C100 8.08346 97.6503 10.4149 94.7518 10.4149C91.8533 10.4149 89.5035 8.08346 89.5035 5.20746C89.5035 2.33147 91.8533 9.00929e-06 94.7518 9.00929e-06Z" fill="#4EBB6D"/>
<path d="M94.7518 2.60383C97.6503 2.60383 100 3.76955 100 5.20755C100 6.64555 97.6503 7.81128 94.7518 7.81128C91.8533 7.81128 89.5035 6.64555 89.5035 5.20755C89.5035 3.76955 91.8533 2.60383 94.7518 2.60383Z" fill="#D5BF82"/>
<path d="M94.7518 5.2074V10.4149H89.5035V5.2074H94.7518Z" fill="#4EBB6D"/>
</g>
<path d="M90.4146 72.5479C91.0657 72.5479 91.5865 73.0656 91.5865 73.7056C91.5865 74.3528 91.0657 74.8706 90.4146 74.8706C89.7708 74.8706 89.2427 74.3528 89.2427 73.7056C89.2427 73.0656 89.7708 72.5479 90.4146 72.5479ZM90.4146 74.3528C90.7763 74.3528 91.0657 74.0652 91.0657 73.7056C91.0657 73.3533 90.7763 73.0656 90.4146 73.0656C90.0602 73.0656 89.7636 73.3533 89.7636 73.7056C89.7636 74.0652 90.0602 74.3528 90.4146 74.3528Z" fill="#4EBB6D"/>
<path d="M85.5348 69.8007C85.4894 70.0094 85.4156 70.3421 85.2567 70.7482C85.1376 71.0246 84.973 71.3461 84.8142 71.5717C84.9674 71.504 85.2681 71.4645 85.461 71.4645C85.9319 71.4645 86.2894 71.7409 86.2894 72.2654C86.2894 72.57 86.3064 73.1848 86.3121 73.5401H85.6312C85.6539 73.275 85.6652 72.7956 85.6596 72.491C85.6596 72.1301 85.4326 72.0116 85.1943 72.0116C84.8823 72.0116 84.5248 72.1977 84.3092 72.4008C84.139 72.57 83.9801 72.773 83.7872 73.0212L83.1801 72.57C83.9064 71.9044 84.3433 71.2953 84.5816 70.6749C84.695 70.3703 84.7688 70.0263 84.7858 69.7386L85.5348 69.8007ZM83.3957 70.3252C83.6851 70.3647 84.105 70.3873 84.3943 70.3873C85.1433 70.3873 86.1702 70.3478 86.9929 70.2011L86.9872 70.8554C86.1872 70.9682 85.0468 71.019 84.3546 71.019C84.122 71.019 83.7078 71.0077 83.3957 70.9795V70.3252ZM87.8894 71.927C87.7135 71.9778 87.4071 72.0906 87.2142 72.1639C86.8454 72.3049 86.3348 72.5079 85.8014 72.7787C85.2851 73.0437 85.0071 73.2863 85.0071 73.5965C85.0071 73.9067 85.2794 73.9913 85.8298 73.9913C86.3121 73.9913 86.9475 73.9292 87.4468 73.8277L87.4241 74.5553C87.044 74.6061 86.3518 74.6568 85.8128 74.6568C84.9277 74.6568 84.2638 74.4369 84.2638 73.7093C84.2638 72.9253 85.0752 72.4628 85.756 72.1244C86.278 71.8537 86.6355 71.7183 86.9759 71.5604C87.1972 71.4645 87.3957 71.3743 87.6113 71.2671L87.8894 71.927Z" fill="#4EBB6D"/>
<path d="M78.6756 70.1749H80.9833V70.8796H78.6756V70.1749ZM78.4513 72.699H81.1352V73.4037H78.4513V72.699ZM79.1024 71.5556H79.6305V74.8779H79.1024V71.5556ZM79.985 71.5556H80.5058V74.8779H79.985V71.5556ZM79.7969 69.0171C79.4424 69.5996 78.8203 70.3187 78.1475 70.7789C78.0535 70.5632 77.8654 70.2612 77.7207 70.0886C78.4007 69.6571 79.0735 68.8589 79.3918 68.2405H80.1441C80.5998 68.938 81.2726 69.6571 81.9309 70.0239C81.7718 70.218 81.5909 70.5129 81.4607 70.7645C80.8458 70.3331 80.1803 69.6068 79.7969 69.0171ZM78.1041 71.2895H81.1569V71.9942H78.7624V74.9785H78.1041V71.2895ZM80.8675 71.2895H81.5981V74.2451C81.5981 74.5327 81.562 74.7269 81.3884 74.8419C81.2075 74.957 80.9977 74.9714 80.7228 74.9714C80.6939 74.7772 80.6071 74.4824 80.5203 74.2954C80.636 74.3026 80.759 74.3026 80.8096 74.3026C80.853 74.3026 80.8675 74.281 80.8675 74.2235V71.2895ZM75.1237 68.9092H77.8943V69.6499H75.1237V68.9092ZM75.0152 73.0801H77.9233V73.828H75.0152V73.0801ZM76.1437 68.2261H76.8526V70.3187H76.1437V68.2261ZM76.2305 70.3331H76.7875V72.3322H76.8671V74.9714H76.1509V72.3322H76.2305V70.3331ZM75.8398 71.6203V72.0518H77.1854V71.6203H75.8398ZM75.8398 70.6351V71.0522H77.1854V70.6351H75.8398ZM75.2394 70.0382H77.8147V72.6486H75.2394V70.0382Z" fill="#4EBB6D"/>
<path d="M67.3616 68.8085H73.5829V69.5924H67.3616V68.8085ZM67.188 73.2311H73.7999V74.0077H67.188V73.2311ZM70.002 68.2189H70.899V74.9785H70.002V68.2189ZM68.7433 71.7066V72.1524H72.165V71.7066H68.7433ZM68.7433 70.6279V71.0666H72.165V70.6279H68.7433ZM67.9114 69.9376H73.0403V72.8428H67.9114V69.9376Z" fill="#4EBB6D"/>
<path d="M63.1803 69.3982C63.079 70.1317 62.9343 70.973 62.6811 71.8216C62.2471 73.2742 61.625 74.1659 60.8364 74.1659C60.0262 74.1659 59.3607 73.2814 59.3607 72.0661C59.3607 70.4121 60.8147 68.9883 62.6884 68.9883C64.4752 68.9883 65.6109 70.2252 65.6109 71.8C65.6109 73.3102 64.6777 74.3816 62.8547 74.6621L62.305 73.8135C62.5871 73.7776 62.7896 73.7416 62.985 73.6985C63.9037 73.4755 64.6271 72.8212 64.6271 71.7641C64.6271 70.6351 63.9181 69.8296 62.6667 69.8296C61.133 69.8296 60.2939 71.0737 60.2939 71.9798C60.2939 72.7061 60.5833 73.0585 60.8581 73.0585C61.1692 73.0585 61.4441 72.5982 61.7479 71.6274C61.9577 70.9515 62.1169 70.1245 62.1892 69.3694L63.1803 69.3982Z" fill="#4EBB6D"/>
<path d="M51.2586 68.9669H54.3113V69.7292H51.2586V68.9669ZM52.4233 68.2334H53.1901V70.6137H52.4233V68.2334ZM52.0037 70.8294V71.5126H53.6169V70.8294H52.0037ZM51.3743 70.1822H54.2896V72.1669H51.3743V70.1822ZM52.416 71.7571L52.9513 72.0231C52.6186 72.8501 52.0399 73.8784 51.4394 74.425C51.3743 74.1948 51.1935 73.8497 51.0705 73.6411C51.5913 73.2025 52.1556 72.3899 52.416 71.7571ZM53.1539 71.9656C53.3854 72.1526 54.1739 72.922 54.3547 73.109L53.8484 73.7706C53.6169 73.3823 53.0309 72.6703 52.7416 72.3395L53.1539 71.9656ZM52.4811 70.5633H53.1322V71.9009H53.1901V74.9715H52.4233V71.9009H52.4811V70.5633ZM54.3909 68.4995H57.9211V69.2402H54.3909V68.4995ZM55.4326 71.4263V71.8721H56.865V71.4263H55.4326ZM55.4326 72.469V72.922H56.865V72.469H55.4326ZM55.4326 70.3907V70.8294H56.865V70.3907H55.4326ZM54.6586 69.7507H57.6896V73.562H54.6586V69.7507ZM55.7003 68.9094L56.6479 69.0172C56.5105 69.4559 56.3586 69.9089 56.2356 70.211L55.5122 70.0743C55.5918 69.7363 55.6713 69.2545 55.7003 68.9094ZM55.2518 73.5548L55.9462 74.0007C55.5556 74.3746 54.9045 74.7773 54.3547 74.9859C54.2173 74.8349 53.9713 74.5832 53.7905 74.4393C54.3258 74.2452 54.9479 73.8641 55.2518 73.5548ZM56.2718 74.0079L56.9084 73.6124C57.299 73.8784 57.8271 74.2811 58.0875 74.5544L57.4147 74.9931C57.176 74.727 56.6624 74.2955 56.2718 74.0079Z" fill="#4EBB6D"/>
<path d="M46.0501 68.4995H49.385V69.1754H46.0501V68.4995ZM45.9343 70.5705H49.5152V71.2465H45.9343V70.5705ZM45.9343 71.5988H49.4862V72.2748H45.9343V71.5988ZM46.2816 74.0007H49.1607V74.6838H46.2816V74.0007ZM45.3628 69.5278H50.0216V70.2253H45.3628V69.5278ZM45.8186 72.6344H49.6164V74.9427H48.7411V73.3031H46.6505V74.9643H45.8186V72.6344ZM44.8275 68.2334L45.6377 68.4923C45.1458 69.7148 44.3501 71.002 43.5254 71.8146C43.453 71.6132 43.2216 71.1386 43.0769 70.9301C43.7641 70.2829 44.4369 69.2617 44.8275 68.2334ZM44.133 70.2253L44.9505 69.4056L44.9577 69.4127V74.9499H44.133V70.2253Z" fill="#4EBB6D"/>
<path d="M39.9156 74.8202C39.4743 74.2881 38.8594 73.6696 38.3531 73.2381L39.1126 72.5909C39.6262 73.008 40.3207 73.7128 40.6897 74.1586L39.9156 74.8202Z" fill="#4EBB6D"/>
<path d="M34.366 70.3816C35.0638 70.4775 36.1986 70.4493 36.8057 70.3759V71.1035C36.1135 71.1712 35.0808 71.1712 34.3716 71.1035L34.366 70.3816ZM34.8199 72.7899C34.7745 72.9817 34.7518 73.117 34.7518 73.2637C34.7518 73.5175 34.973 73.6698 35.5518 73.6698C36.0567 73.6698 36.4766 73.6246 36.9702 73.5175L36.9872 74.2789C36.6184 74.3522 36.1589 74.3917 35.5177 74.3917C34.5418 74.3917 34.0709 74.042 34.0709 73.4667C34.0709 73.2411 34.105 73.0211 34.173 72.7335L34.8199 72.7899ZM33.4922 70.0037C33.4525 70.1221 33.3787 70.4098 33.356 70.5113C33.2766 70.8835 33.078 72.0116 33.078 72.5756C33.078 72.6884 33.0837 72.8294 33.1007 72.9422C33.1858 72.7504 33.2766 72.5587 33.3617 72.3669L33.7135 72.6433C33.5489 73.117 33.3617 73.7262 33.305 74.0251C33.2879 74.1097 33.2709 74.2338 33.2709 74.2902C33.2766 74.3522 33.2766 74.4481 33.2823 74.5271L32.6298 74.5665C32.5163 74.183 32.4085 73.4949 32.4085 72.7279C32.4085 71.8762 32.5787 70.9287 32.6411 70.4887C32.6638 70.3365 32.6922 70.1221 32.6979 69.9417L33.4922 70.0037Z" fill="#4EBB6D"/>
<path d="M27.4315 69.3908H30.9038V70.2106H27.0264L27.4315 69.3908ZM28.3864 70.9729H30.7157V71.7567H28.3864V70.9729ZM28.3791 72.5621H30.8098V73.3675H28.3791V72.5621ZM27.9451 69.6641H28.8349V74.9711H27.9451V69.6641ZM27.5978 68.2834L28.437 68.5063C28.0319 69.6713 27.3808 70.865 26.7153 71.6129C26.5778 71.4547 26.2451 71.1455 26.057 71.0088C26.6936 70.3616 27.2651 69.3261 27.5978 68.2834ZM25.6881 68.2474L26.5272 68.5135C26.057 69.736 25.2974 71.052 24.5017 71.8718C24.4221 71.656 24.1761 71.167 24.0242 70.9513C24.6898 70.2969 25.3191 69.2758 25.6881 68.2474ZM24.9574 70.2322L25.8255 69.3621L25.8327 69.3693V74.964H24.9574V70.2322Z" fill="#4EBB6D"/>
<path d="M20.5591 68.8156H21.3694V72.8785H20.5591V68.8156ZM21.8613 68.3409H22.7004V73.95C22.7004 74.4175 22.6064 74.6476 22.3387 74.7986C22.0711 74.9352 21.6515 74.964 21.0945 74.964C21.0583 74.7195 20.9353 74.3384 20.8268 74.0867C21.203 74.101 21.5791 74.101 21.7094 74.101C21.8251 74.101 21.8613 74.0651 21.8613 73.95V68.3409ZM17.8247 68.2618H18.6494V74.964H17.8247V68.2618ZM19.286 71.7927H20.0672V73.6336C20.0672 73.9716 20.0238 74.173 19.8068 74.3024C19.597 74.4246 19.3221 74.439 18.9604 74.4318C18.9387 74.2161 18.8447 73.9069 18.7506 73.6983C18.946 73.7055 19.134 73.7055 19.1991 73.7055C19.2643 73.7055 19.286 73.6911 19.286 73.6192V71.7927ZM16.4574 71.7927H19.597V72.5621H17.2315V74.3959H16.4574V71.7927ZM16.1753 70.4983H20.2408V71.2749H16.1753V70.4983ZM16.9349 69.1751H19.9587V69.9589H16.7757L16.9349 69.1751ZM16.7323 68.3553L17.5281 68.5135C17.3689 69.2686 17.094 70.0524 16.8191 70.5486C16.6455 70.4479 16.2694 70.3041 16.0668 70.2322C16.3634 69.7648 16.6021 69.0385 16.7323 68.3553Z" fill="#4EBB6D"/>
<path d="M11.2851 68.2189L12.0953 68.3699C11.7047 69.0746 11.1838 69.7722 10.4604 70.3618C10.3157 70.1892 10.0336 69.9735 9.83106 69.8728C10.5183 69.391 11.0102 68.7582 11.2851 68.2189ZM11.5094 68.6575H13.1225V69.2832H11.0102L11.5094 68.6575ZM11.1404 70.254V70.8005H13.8821V70.254H11.1404ZM10.3591 69.6643H14.714V71.3758H10.3591V69.6643ZM12.0808 69.9232H12.8549V71.0666H12.0808V69.9232ZM12.2111 70.858L12.8621 71.1169C12.2689 71.7066 11.2851 72.2315 10.446 72.5407C10.3447 72.3969 10.1204 72.1093 9.97574 71.9798C10.8004 71.7425 11.7119 71.3326 12.2111 70.858ZM11.3285 71.8288L11.9 71.4836C13.3323 72.4473 13.3468 74.1803 12.7536 74.6837C12.5294 74.9066 12.3051 74.9642 11.9868 74.9785C11.8421 74.9785 11.654 74.9785 11.4732 74.9642C11.466 74.7628 11.4081 74.4464 11.2779 74.2307C11.4877 74.2594 11.6757 74.2666 11.8204 74.2666C11.9723 74.2666 12.0881 74.245 12.1821 74.13C12.4932 73.8495 12.4715 72.6198 11.3285 71.8288ZM12.0736 71.9511L12.5511 72.2747C12.0447 72.7277 11.126 73.2527 10.4098 73.5403C10.323 73.3749 10.1638 73.1376 10.0191 72.9938C10.7136 72.7996 11.6251 72.3466 12.0736 71.9511ZM12.4281 72.6846L12.9706 73.0657C12.363 73.6769 11.2489 74.3601 10.3519 74.7197C10.2506 74.5327 10.0698 74.2666 9.9034 74.1156C10.786 73.8423 11.8928 73.2383 12.4281 72.6846ZM14.3885 71.5196L14.9672 72.0374C14.62 72.3466 14.1787 72.6774 13.8532 72.8787L13.3613 72.4113C13.6796 72.1956 14.1281 71.8072 14.3885 71.5196ZM13.3685 71.0018C13.6145 72.3034 14.1353 73.4684 15.0613 74.0149C14.8804 74.1659 14.6272 74.4752 14.5043 74.6909C13.4915 74.0005 12.9634 72.6989 12.6668 71.1241L13.3685 71.0018ZM12.8621 68.6575H13.043L13.2021 68.6072L13.7085 68.9739C13.4481 69.4126 13.0647 69.916 12.7391 70.2324C12.6306 70.0814 12.4064 69.8369 12.2689 69.7218C12.4932 69.4773 12.7464 69.0674 12.8621 68.7942V68.6575ZM9.46936 68.2333L10.2723 68.4634C9.86 69.7218 9.19446 71.0881 8.45659 71.9511C8.38425 71.7353 8.17446 71.2463 8.03702 71.0162C8.62298 70.3403 9.15829 69.2832 9.46936 68.2333ZM8.89787 70.2036L9.70085 69.4126L9.72255 69.427V74.9642H8.89787V70.2036Z" fill="#4EBB6D"/>
<path d="M2.75617 71.6274H7.03873V72.4041H2.75617V71.6274ZM3.11064 69.2903H6.69149V71.9151H5.88851V70.0598H3.88469V71.9151H3.11064V69.2903ZM4.44894 68.2836H5.24469V71.0593C5.24469 72.627 4.96979 74.1228 2.85022 74.9498C2.74171 74.7628 2.48852 74.4536 2.30766 74.3097C4.21745 73.5906 4.44894 72.3681 4.44894 71.0522V68.2836ZM5.33149 71.951C5.60639 73.0081 6.18511 73.8927 7.11107 74.3025C6.92298 74.4608 6.67703 74.7844 6.55405 75.0001C5.53405 74.4536 4.94809 73.4252 4.61532 72.1021L5.33149 71.951ZM0.853622 68.6791H2.59703V73.5978H0.853622V72.8284H1.80852V69.4485H0.853622V68.6791ZM0.925962 70.7214H2.30043V71.4692H0.925962V70.7214ZM0.45575 68.6791H1.24426V74.2378H0.45575V68.6791Z" fill="#4EBB6D"/>
</svg>
