<svg width="700" height="530" viewBox="0 0 700 530" fill="none" xmlns="http://www.w3.org/2000/svg">
<path d="M639.17 399.512V446.565H323.312V413.033L431.837 276.202H355.708V231.312H467.473L559.261 115.032H325.471V67.9796H631.071V100.971L527.405 232.394H597.596V277.283H491.77L395.662 399.512H639.17Z" fill="#4EBB6D"/>
<path d="M161.979 63.653C212.372 63.653 252.147 78.4358 281.303 108.002C310.459 137.207 325.037 179.212 325.037 234.016V446.565H271.044V342.184H52.913V446.565H0V234.016C0 179.212 14.5781 137.207 43.7342 108.002C72.8904 78.4358 112.305 63.653 161.979 63.653ZM271.044 295.131V229.149C271.044 190.569 261.325 161.364 241.888 141.533C222.811 121.703 196.174 111.787 161.979 111.787C127.783 111.787 100.967 121.703 81.5292 141.533C62.4517 161.364 52.913 190.569 52.913 229.149V295.131H271.044Z" fill="#4EBB6D"/>
<mask id="mask0_111_3081" style="mask-type:alpha" maskUnits="userSpaceOnUse" x="626" y="0" width="74" height="74">
<path d="M663.262 73.5986V36.7993H700V73.5986H663.262Z" fill="#F8F8F8"/>
<path d="M626.525 36.7993V-2.72612e-05H663.262V36.7993H626.525Z" fill="#F8F8F8"/>
<path d="M626.525 73.5986V36.7993H663.262V73.5986H626.525Z" fill="#F8F8F8"/>
</mask>
<g mask="url(#mask0_111_3081)">
<path d="M663.262 -5.45225e-05C683.552 -5.45225e-05 700 16.4756 700 36.7993C700 57.123 683.552 73.5986 663.262 73.5986C642.973 73.5986 626.525 57.123 626.525 36.7993C626.525 16.4756 642.973 -5.45225e-05 663.262 -5.45225e-05Z" fill="#4EBB6D"/>
<path d="M663.262 18.3998C683.552 18.3998 700 26.6376 700 36.7994C700 46.9613 683.552 55.1991 663.262 55.1991C642.973 55.1991 626.525 46.9613 626.525 36.7994C626.525 26.6376 642.973 18.3998 663.262 18.3998Z" fill="#D5BF82"/>
<path d="M663.262 36.7993V73.5987H626.525V36.7993H663.262Z" fill="#4EBB6D"/>
</g>
<path d="M632.902 512.671C637.46 512.671 641.106 516.33 641.106 520.853C641.106 525.426 637.46 529.085 632.902 529.085C628.396 529.085 624.699 525.426 624.699 520.853C624.699 516.33 628.396 512.671 632.902 512.671ZM632.902 525.426C635.434 525.426 637.46 523.394 637.46 520.853C637.46 518.363 635.434 516.33 632.902 516.33C630.421 516.33 628.345 518.363 628.345 520.853C628.345 523.394 630.421 525.426 632.902 525.426Z" fill="#4EBB6D"/>
<path d="M598.743 493.258C598.426 494.733 597.909 497.084 596.797 499.954C595.963 501.907 594.811 504.179 593.699 505.773C594.772 505.295 596.877 505.016 598.227 505.016C601.523 505.016 604.026 506.969 604.026 510.676C604.026 512.828 604.145 517.172 604.184 519.683H599.418C599.577 517.81 599.657 514.422 599.617 512.27C599.617 509.719 598.028 508.882 596.36 508.882C594.176 508.882 591.674 510.197 590.165 511.632C588.973 512.828 587.861 514.263 586.511 516.016L582.261 512.828C587.345 508.125 590.403 503.82 592.071 499.436C592.865 497.284 593.382 494.852 593.501 492.82L598.743 493.258ZM583.77 496.965C585.796 497.244 588.735 497.403 590.76 497.403C596.003 497.403 603.192 497.124 608.95 496.088L608.911 500.711C603.311 501.508 595.328 501.867 590.482 501.867C588.854 501.867 585.955 501.787 583.77 501.588V496.965ZM615.226 508.284C613.994 508.643 611.85 509.44 610.499 509.958C607.918 510.955 604.343 512.389 600.61 514.302C596.996 516.176 595.05 517.89 595.05 520.082C595.05 522.274 596.956 522.872 600.809 522.872C604.184 522.872 608.633 522.433 612.128 521.716L611.969 526.857C609.308 527.216 604.462 527.575 600.689 527.575C594.494 527.575 589.847 526.02 589.847 520.879C589.847 515.339 595.526 512.071 600.292 509.679C603.946 507.766 606.448 506.809 608.831 505.693C610.38 505.016 611.77 504.378 613.279 503.621L615.226 508.284Z" fill="#4EBB6D"/>
<path d="M550.729 495.902H566.883V500.882H550.729V495.902ZM549.159 513.739H567.946V518.719H549.159V513.739ZM553.717 505.659H557.413V529.136H553.717V505.659ZM559.895 505.659H563.541V529.136H559.895V505.659ZM558.578 487.72C556.097 491.836 551.742 496.918 547.033 500.17C546.374 498.646 545.058 496.512 544.045 495.292C548.805 492.243 553.514 486.602 555.742 482.232H561.009C564.199 487.161 568.908 492.243 573.516 494.835C572.402 496.207 571.136 498.29 570.225 500.069C565.921 497.02 561.262 491.887 558.578 487.72ZM546.729 503.778H568.098V508.759H551.337V529.848H546.729V503.778ZM566.073 503.778H571.187V524.664C571.187 526.697 570.934 528.069 569.719 528.882C568.453 529.695 566.984 529.797 565.06 529.797C564.857 528.425 564.25 526.341 563.642 525.02C564.452 525.071 565.313 525.071 565.668 525.071C565.971 525.071 566.073 524.918 566.073 524.512V503.778ZM525.866 486.958H545.26V492.192H525.866V486.958ZM525.106 516.432H545.463V521.717H525.106V516.432ZM533.006 482.13H537.968V496.918H533.006V482.13ZM533.613 497.02H537.513V511.147H538.07V529.797H533.056V511.147H533.613V497.02ZM530.879 506.116V509.165H540.298V506.116H530.879ZM530.879 499.154V502.101H540.298V499.154H530.879ZM526.676 494.936H544.703V513.383H526.676V494.936Z" fill="#4EBB6D"/>
<path d="M471.531 486.246H515.08V491.785H471.531V486.246ZM470.316 517.499H516.599V522.987H470.316V517.499ZM490.014 482.079H496.293V529.848H490.014V482.079ZM481.203 506.726V509.876H505.155V506.726H481.203ZM481.203 499.103V502.203H505.155V499.103H481.203ZM475.379 494.225H511.282V514.755H475.379V494.225Z" fill="#4EBB6D"/>
<path d="M442.262 490.413C441.553 495.597 440.54 501.542 438.768 507.539C435.73 517.804 431.375 524.105 425.855 524.105C420.184 524.105 415.525 517.855 415.525 509.267C415.525 497.579 425.703 487.517 438.819 487.517C451.326 487.517 459.276 496.257 459.276 507.386C459.276 518.058 452.744 525.63 439.983 527.612L436.135 521.615C438.11 521.361 439.528 521.107 440.895 520.802C447.326 519.227 452.39 514.602 452.39 507.132C452.39 499.154 447.427 493.462 438.667 493.462C427.931 493.462 422.057 502.254 422.057 508.657C422.057 513.789 424.083 516.279 426.007 516.279C428.185 516.279 430.109 513.027 432.236 506.167C433.704 501.39 434.818 495.546 435.325 490.21L442.262 490.413Z" fill="#4EBB6D"/>
<path d="M358.81 487.364H380.179V492.751H358.81V487.364ZM366.963 482.181H372.33V499.001H366.963V482.181ZM364.026 500.526V505.354H375.318V500.526H364.026ZM359.62 495.952H380.028V509.978H359.62V495.952ZM366.912 507.081L370.659 508.962C368.33 514.806 364.279 522.073 360.076 525.935C359.62 524.308 358.354 521.869 357.493 520.396C361.139 517.296 365.089 511.553 366.912 507.081ZM372.077 508.555C373.698 509.876 379.217 515.314 380.483 516.635L376.939 521.31C375.318 518.566 371.216 513.535 369.191 511.198L372.077 508.555ZM367.368 498.646H371.925V508.098H372.33V529.797H366.963V508.098H367.368V498.646ZM380.736 484.061H405.448V489.295H380.736V484.061ZM388.028 504.744V507.894H398.055V504.744H388.028ZM388.028 512.112V515.314H398.055V512.112H388.028ZM388.028 497.426V500.526H398.055V497.426H388.028ZM382.61 492.903H403.828V519.837H382.61V492.903ZM389.902 486.958L396.536 487.72C395.573 490.82 394.51 494.021 393.649 496.156L388.585 495.19C389.142 492.802 389.699 489.397 389.902 486.958ZM386.762 519.786L391.624 522.936C388.889 525.579 384.332 528.425 380.483 529.898C379.521 528.831 377.799 527.053 376.533 526.036C380.281 524.664 384.636 521.971 386.762 519.786ZM393.902 522.987L398.359 520.192C401.093 522.073 404.79 524.918 406.613 526.849L401.903 529.949C400.232 528.069 396.637 525.02 393.902 522.987Z" fill="#4EBB6D"/>
<path d="M322.35 484.061H345.695V488.838H322.35V484.061ZM321.54 498.697H346.606V503.473H321.54V498.697ZM321.54 505.963H346.404V510.74H321.54V505.963ZM323.971 522.936H344.125V527.764H323.971V522.936ZM317.54 491.328H350.151V496.257H317.54V491.328ZM320.73 513.281H347.315V529.594H341.188V518.007H326.553V529.746H320.73V513.281ZM313.793 482.181L319.464 484.01C316.021 492.649 310.45 501.746 304.678 507.488C304.171 506.065 302.551 502.711 301.538 501.237C306.349 496.664 311.058 489.448 313.793 482.181ZM308.931 496.257L314.653 490.464L314.704 490.515V529.644H308.931V496.257Z" fill="#4EBB6D"/>
<path d="M279.409 528.73C276.32 524.969 272.016 520.599 268.471 517.55L273.788 512.976C277.384 515.924 282.245 520.904 284.828 524.054L279.409 528.73Z" fill="#4EBB6D"/>
<path d="M240.562 497.363C245.447 498.041 253.39 497.842 257.64 497.323V502.465C252.794 502.943 245.566 502.943 240.601 502.465L240.562 497.363ZM243.739 514.382C243.421 515.737 243.262 516.694 243.262 517.73C243.262 519.524 244.811 520.6 248.862 520.6C252.397 520.6 255.336 520.281 258.791 519.524L258.911 524.904C256.329 525.422 253.112 525.701 248.624 525.701C241.793 525.701 238.496 523.23 238.496 519.165C238.496 517.571 238.735 516.016 239.211 513.983L243.739 514.382ZM234.445 494.693C234.167 495.53 233.651 497.563 233.492 498.28C232.936 500.91 231.546 508.882 231.546 512.867C231.546 513.665 231.586 514.661 231.705 515.458C232.301 514.103 232.936 512.748 233.532 511.393L235.994 513.346C234.843 516.694 233.532 520.998 233.135 523.111C233.016 523.709 232.896 524.585 232.896 524.984C232.936 525.422 232.936 526.1 232.976 526.658L228.409 526.937C227.614 524.227 226.86 519.364 226.86 513.944C226.86 507.925 228.051 501.229 228.488 498.12C228.647 497.044 228.845 495.53 228.885 494.254L234.445 494.693Z" fill="#4EBB6D"/>
<path d="M192.02 490.362H216.327V496.156H189.185L192.02 490.362ZM198.705 501.542H215.01V507.081H198.705V501.542ZM198.654 512.773H215.669V518.464H198.654V512.773ZM195.616 492.293H201.844V529.797H195.616V492.293ZM193.185 482.537L199.059 484.112C196.223 492.344 191.666 500.78 187.007 506.065C186.045 504.947 183.716 502.762 182.399 501.796C186.855 497.223 190.856 489.905 193.185 482.537ZM179.817 482.282L185.691 484.163C182.399 492.802 177.082 502.101 171.512 507.894C170.955 506.37 169.233 502.914 168.17 501.39C172.829 496.765 177.234 489.549 179.817 482.282ZM174.702 496.308L180.779 490.159L180.829 490.21V529.746H174.702V496.308Z" fill="#4EBB6D"/>
<path d="M143.914 486.297H149.586V515.009H143.914V486.297ZM153.029 482.943H158.903V522.581C158.903 525.884 158.245 527.51 156.371 528.577C154.497 529.543 151.56 529.746 147.661 529.746C147.408 528.018 146.547 525.325 145.788 523.546C148.421 523.648 151.054 523.648 151.966 523.648C152.776 523.648 153.029 523.394 153.029 522.581V482.943ZM124.773 482.384H130.546V529.746H124.773V482.384ZM135.002 507.335H140.471V520.345C140.471 522.733 140.167 524.156 138.648 525.071C137.179 525.935 135.255 526.036 132.723 525.985C132.571 524.461 131.913 522.276 131.254 520.802C132.622 520.853 133.938 520.853 134.394 520.853C134.85 520.853 135.002 520.751 135.002 520.243V507.335ZM115.202 507.335H137.179V512.773H120.62V525.731H115.202V507.335ZM113.227 498.188H141.686V503.677H113.227V498.188ZM118.544 488.838H139.711V494.377H117.43L118.544 488.838ZM117.126 483.045L122.697 484.163C121.583 489.499 119.658 495.038 117.734 498.544C116.519 497.833 113.886 496.816 112.468 496.308C114.544 493.005 116.215 487.872 117.126 483.045Z" fill="#4EBB6D"/>
<path d="M78.9957 482.079L84.6672 483.146C81.9328 488.126 78.2868 493.056 73.223 497.223C72.2102 496.003 70.2353 494.479 68.8175 493.767C73.6281 490.362 77.0715 485.891 78.9957 482.079ZM80.5655 485.179H91.8579V489.6H77.0715L80.5655 485.179ZM77.983 496.461V500.323H97.1749V496.461H77.983ZM72.514 492.294H102.998V504.388H72.514V492.294ZM84.566 494.123H89.9843V502.203H84.566V494.123ZM85.4775 500.729L90.0349 502.559C85.8826 506.726 78.9957 510.435 73.1217 512.62C72.4128 511.604 70.843 509.571 69.8302 508.657C75.603 506.98 81.9834 504.083 85.4775 500.729ZM79.2996 507.59L83.3 505.15C93.3264 511.96 93.4277 524.207 89.2753 527.764C87.7055 529.339 86.1358 529.746 83.9077 529.848C82.8949 529.848 81.5783 529.848 80.3123 529.746C80.2617 528.323 79.8566 526.087 78.9451 524.563C80.4136 524.766 81.7302 524.817 82.743 524.817C83.8064 524.817 84.6166 524.664 85.2749 523.851C87.4523 521.869 87.3004 513.179 79.2996 507.59ZM84.5153 508.453L87.8575 510.74C84.3128 513.942 77.8817 517.651 72.8685 519.684C72.2609 518.515 71.1468 516.838 70.1341 515.822C74.9953 514.45 81.3757 511.248 84.5153 508.453ZM86.9966 513.637L90.7945 516.33C86.5409 520.65 78.7426 525.477 72.4634 528.018C71.7545 526.697 70.4885 524.817 69.3238 523.749C75.5017 521.818 83.2494 517.55 86.9966 513.637ZM100.72 505.404L104.771 509.063C102.34 511.248 99.2511 513.586 96.9723 515.009L93.5289 511.706C95.757 510.181 98.8966 507.437 100.72 505.404ZM93.5796 501.746C95.3013 510.943 98.9472 519.176 105.429 523.038C104.163 524.105 102.391 526.29 101.53 527.815C94.4404 522.936 90.7438 513.738 88.6677 502.609L93.5796 501.746ZM90.0349 485.179H91.3009L92.4149 484.823L95.9596 487.415C94.1366 490.515 91.4528 494.072 89.174 496.308C88.4145 495.241 86.8447 493.513 85.8826 492.7C87.4524 490.972 89.2247 488.076 90.0349 486.145V485.179ZM66.2855 482.181L71.9064 483.807C69.02 492.7 64.3613 502.355 59.1962 508.453C58.6898 506.929 57.2213 503.473 56.2592 501.847C60.3609 497.07 64.1081 489.6 66.2855 482.181ZM62.2851 496.105L67.906 490.515L68.0579 490.617V529.746H62.2851V496.105Z" fill="#4EBB6D"/>
<path d="M19.2932 506.167H49.2711V511.655H19.2932V506.167ZM21.7745 489.651H46.8404V508.199H41.2196V495.088H27.1928V508.199H21.7745V489.651ZM31.1426 482.536H36.7128V502.152C36.7128 513.23 34.7885 523.8 19.9515 529.644C19.1919 528.323 17.4196 526.138 16.1536 525.121C29.5221 520.04 31.1426 511.401 31.1426 502.101V482.536ZM37.3204 508.453C39.2447 515.924 43.2957 522.174 49.7775 525.071C48.4609 526.189 46.7392 528.475 45.8783 530C38.7383 526.138 34.6366 518.871 32.3072 509.521L37.3204 508.453ZM5.97532 485.331H18.1792V520.091H5.97532V514.653H12.6596V490.769H5.97532V485.331ZM6.48171 499.764H16.103V505.049H6.48171V499.764ZM3.19022 485.331H8.70979V524.613H3.19022V485.331Z" fill="#4EBB6D"/>
</svg>
